solid inlet
facet normal 0.000000 0.000000 1.000000
outer loop
vertex -0.000704 0.000704 0.010000
vertex -0.000769 0.000631 0.010000
vertex -0.000828 0.000553 0.010000
endloop
endfacet
facet normal -0.000122 0.000000 1.000000
outer loop
vertex -0.000828 0.000553 0.010000
vertex -0.000878 0.000469 0.010000
vertex -0.000920 0.000381 0.010000
endloop
endfacet
facet normal 0.000000 0.000000 1.000000
outer loop
vertex -0.000920 0.000381 0.010000
vertex -0.000952 0.000289 0.010000
vertex -0.000976 0.000194 0.010000
endloop
endfacet
facet normal 0.000000 0.000000 1.000000
outer loop
vertex -0.000976 0.000194 0.010000
vertex -0.000990 0.000098 0.010000
vertex -0.000995 0.000000 0.010000
endloop
endfacet
facet normal 0.000000 0.000000 1.000000
outer loop
vertex -0.000995 0.000000 0.010000
vertex -0.000990 -0.000098 0.010000
vertex -0.000976 -0.000194 0.010000
endloop
endfacet
facet normal 0.000000 0.000000 1.000000
outer loop
vertex -0.000976 -0.000194 0.010000
vertex -0.000952 -0.000289 0.010000
vertex -0.000920 -0.000381 0.010000
endloop
endfacet
facet normal -0.000122 0.000000 1.000000
outer loop
vertex -0.000920 -0.000381 0.010000
vertex -0.000878 -0.000469 0.010000
vertex -0.000828 -0.000553 0.010000
endloop
endfacet
facet normal 0.000000 0.000000 1.000000
outer loop
vertex -0.000828 -0.000553 0.010000
vertex -0.000769 -0.000631 0.010000
vertex -0.000704 -0.000704 0.010000
endloop
endfacet
facet normal 0.000000 0.000000 1.000000
outer loop
vertex -0.000704 -0.000704 0.010000
vertex -0.000631 -0.000769 0.010000
vertex -0.000553 -0.000828 0.010000
endloop
endfacet
facet normal 0.000061 0.000000 1.000000
outer loop
vertex -0.000553 -0.000828 0.010000
vertex -0.000469 -0.000878 0.010000
vertex -0.000381 -0.000920 0.010000
endloop
endfacet
facet normal -0.000061 0.000000 1.000000
outer loop
vertex -0.000381 -0.000920 0.010000
vertex -0.000289 -0.000952 0.010000
vertex -0.000194 -0.000976 0.010000
endloop
endfacet
facet normal -0.000008 0.000000 1.000000
outer loop
vertex -0.000194 -0.000976 0.010000
vertex -0.000098 -0.000990 0.010000
vertex -0.000000 -0.000995 0.010000
endloop
endfacet
facet normal 0.000000 0.000000 1.000000
outer loop
vertex -0.000000 -0.000995 0.010000
vertex 0.000098 -0.000990 0.010000
vertex 0.000194 -0.000976 0.010000
endloop
endfacet
facet normal 0.000000 0.000000 1.000000
outer loop
vertex 0.000194 -0.000976 0.010000
vertex 0.000289 -0.000952 0.010000
vertex 0.000381 -0.000920 0.010000
endloop
endfacet
facet normal -0.000122 0.000000 1.000000
outer loop
vertex 0.000381 -0.000920 0.010000
vertex 0.000469 -0.000878 0.010000
vertex 0.000553 -0.000828 0.010000
endloop
endfacet
facet normal 0.000000 0.000000 1.000000
outer loop
vertex 0.000553 -0.000828 0.010000
vertex 0.000631 -0.000769 0.010000
vertex 0.000704 -0.000704 0.010000
endloop
endfacet
facet normal 0.000000 0.000000 1.000000
outer loop
vertex 0.000704 -0.000704 0.010000
vertex 0.000769 -0.000631 0.010000
vertex 0.000828 -0.000553 0.010000
endloop
endfacet
facet normal 0.000000 0.000000 1.000000
outer loop
vertex 0.000828 -0.000553 0.010000
vertex 0.000878 -0.000469 0.010000
vertex 0.000920 -0.000381 0.010000
endloop
endfacet
facet normal 0.000000 0.000000 1.000000
outer loop
vertex 0.000920 -0.000381 0.010000
vertex 0.000952 -0.000289 0.010000
vertex 0.000976 -0.000194 0.010000
endloop
endfacet
facet normal 0.000243 0.000000 1.000000
outer loop
vertex 0.000976 -0.000194 0.010000
vertex 0.000990 -0.000098 0.010000
vertex 0.000995 -0.000000 0.010000
endloop
endfacet
facet normal -0.000243 0.000000 1.000000
outer loop
vertex 0.000995 -0.000000 0.010000
vertex 0.000990 0.000098 0.010000
vertex 0.000976 0.000194 0.010000
endloop
endfacet
facet normal 0.000000 0.000000 1.000000
outer loop
vertex 0.000976 0.000194 0.010000
vertex 0.000952 0.000289 0.010000
vertex 0.000920 0.000381 0.010000
endloop
endfacet
facet normal -0.000122 0.000000 1.000000
outer loop
vertex 0.000920 0.000381 0.010000
vertex 0.000878 0.000469 0.010000
vertex 0.000828 0.000553 0.010000
endloop
endfacet
facet normal 0.000000 0.000000 1.000000
outer loop
vertex 0.000828 0.000553 0.010000
vertex 0.000769 0.000631 0.010000
vertex 0.000704 0.000704 0.010000
endloop
endfacet
facet normal -0.000122 0.000000 1.000000
outer loop
vertex 0.000704 0.000704 0.010000
vertex 0.000631 0.000769 0.010000
vertex 0.000553 0.000828 0.010000
endloop
endfacet
facet normal 0.000000 0.000000 1.000000
outer loop
vertex 0.000553 0.000828 0.010000
vertex 0.000469 0.000878 0.010000
vertex 0.000381 0.000920 0.010000
endloop
endfacet
facet normal -0.000030 0.000000 1.000000
outer loop
vertex 0.000381 0.000920 0.010000
vertex 0.000289 0.000952 0.010000
vertex 0.000194 0.000976 0.010000
endloop
endfacet
facet normal 0.000008 0.000000 1.000000
outer loop
vertex 0.000194 0.000976 0.010000
vertex 0.000098 0.000990 0.010000
vertex 0.000000 0.000995 0.010000
endloop
endfacet
facet normal 0.000000 0.000000 1.000000
outer loop
vertex 0.000000 0.000995 0.010000
vertex -0.000098 0.000990 0.010000
vertex -0.000194 0.000976 0.010000
endloop
endfacet
facet normal 0.000000 0.000000 1.000000
outer loop
vertex -0.000194 0.000976 0.010000
vertex -0.000289 0.000952 0.010000
vertex -0.000381 0.000920 0.010000
endloop
endfacet
facet normal 0.000122 0.000000 1.000000
outer loop
vertex -0.000381 0.000920 0.010000
vertex -0.000469 0.000878 0.010000
vertex -0.000553 0.000828 0.010000
endloop
endfacet
facet normal 0.000000 0.000000 1.000000
outer loop
vertex -0.000553 0.000828 0.010000
vertex -0.000631 0.000769 0.010000
vertex -0.000704 0.000704 0.010000
endloop
endfacet
facet normal -0.000031 0.000000 1.000000
outer loop
vertex -0.000704 0.000704 0.010000
vertex -0.000828 0.000553 0.010000
vertex -0.000920 0.000381 0.010000
endloop
endfacet
facet normal 0.000000 0.000000 1.000000
outer loop
vertex -0.000920 0.000381 0.010000
vertex -0.000976 0.000194 0.010000
vertex -0.000995 0.000000 0.010000
endloop
endfacet
facet normal -0.000031 0.000000 1.000000
outer loop
vertex -0.000995 0.000000 0.010000
vertex -0.000976 -0.000194 0.010000
vertex -0.000920 -0.000381 0.010000
endloop
endfacet
facet normal 0.000000 0.000000 1.000000
outer loop
vertex -0.000920 -0.000381 0.010000
vertex -0.000828 -0.000553 0.010000
vertex -0.000704 -0.000704 0.010000
endloop
endfacet
facet normal 0.000015 0.000000 1.000000
outer loop
vertex -0.000704 -0.000704 0.010000
vertex -0.000553 -0.000828 0.010000
vertex -0.000381 -0.000920 0.010000
endloop
endfacet
facet normal 0.000004 0.000000 1.000000
outer loop
vertex -0.000381 -0.000920 0.010000
vertex -0.000194 -0.000976 0.010000
vertex -0.000000 -0.000995 0.010000
endloop
endfacet
facet normal 0.000000 0.000000 1.000000
outer loop
vertex -0.000000 -0.000995 0.010000
vertex 0.000194 -0.000976 0.010000
vertex 0.000381 -0.000920 0.010000
endloop
endfacet
facet normal 0.000000 0.000000 1.000000
outer loop
vertex 0.000381 -0.000920 0.010000
vertex 0.000553 -0.000828 0.010000
vertex 0.000704 -0.000704 0.010000
endloop
endfacet
facet normal 0.000000 0.000000 1.000000
outer loop
vertex 0.000704 -0.000704 0.010000
vertex 0.000828 -0.000553 0.010000
vertex 0.000920 -0.000381 0.010000
endloop
endfacet
facet normal 0.000000 0.000000 1.000000
outer loop
vertex 0.000920 -0.000381 0.010000
vertex 0.000976 -0.000194 0.010000
vertex 0.000995 -0.000000 0.010000
endloop
endfacet
facet normal -0.000031 0.000000 1.000000
outer loop
vertex 0.000995 -0.000000 0.010000
vertex 0.000976 0.000194 0.010000
vertex 0.000920 0.000381 0.010000
endloop
endfacet
facet normal 0.000031 0.000000 1.000000
outer loop
vertex 0.000920 0.000381 0.010000
vertex 0.000828 0.000553 0.010000
vertex 0.000704 0.000704 0.010000
endloop
endfacet
facet normal -0.000015 0.000000 1.000000
outer loop
vertex 0.000704 0.000704 0.010000
vertex 0.000553 0.000828 0.010000
vertex 0.000381 0.000920 0.010000
endloop
endfacet
facet normal -0.000004 0.000000 1.000000
outer loop
vertex 0.000381 0.000920 0.010000
vertex 0.000194 0.000976 0.010000
vertex 0.000000 0.000995 0.010000
endloop
endfacet
facet normal 0.000000 0.000000 1.000000
outer loop
vertex 0.000000 0.000995 0.010000
vertex -0.000194 0.000976 0.010000
vertex -0.000381 0.000920 0.010000
endloop
endfacet
facet normal -0.000031 0.000000 1.000000
outer loop
vertex -0.000381 0.000920 0.010000
vertex -0.000553 0.000828 0.010000
vertex -0.000704 0.000704 0.010000
endloop
endfacet
facet normal 0.000000 0.000000 1.000000
outer loop
vertex -0.000704 0.000704 0.010000
vertex -0.000920 0.000381 0.010000
vertex -0.000995 0.000000 0.010000
endloop
endfacet
facet normal 0.000016 0.000000 1.000000
outer loop
vertex -0.000995 0.000000 0.010000
vertex -0.000920 -0.000381 0.010000
vertex -0.000704 -0.000704 0.010000
endloop
endfacet
facet normal 0.000000 0.000000 1.000000
outer loop
vertex -0.000704 -0.000704 0.010000
vertex -0.000381 -0.000920 0.010000
vertex -0.000000 -0.000995 0.010000
endloop
endfacet
facet normal 0.000000 0.000000 1.000000
outer loop
vertex -0.000000 -0.000995 0.010000
vertex 0.000381 -0.000920 0.010000
vertex 0.000704 -0.000704 0.010000
endloop
endfacet
facet normal -0.000016 0.000000 1.000000
outer loop
vertex 0.000704 -0.000704 0.010000
vertex 0.000920 -0.000381 0.010000
vertex 0.000995 -0.000000 0.010000
endloop
endfacet
facet normal 0.000016 0.000000 1.000000
outer loop
vertex 0.000995 -0.000000 0.010000
vertex 0.000920 0.000381 0.010000
vertex 0.000704 0.000704 0.010000
endloop
endfacet
facet normal 0.000000 0.000000 1.000000
outer loop
vertex 0.000704 0.000704 0.010000
vertex 0.000381 0.000920 0.010000
vertex 0.000000 0.000995 0.010000
endloop
endfacet
facet normal 0.000000 0.000000 1.000000
outer loop
vertex 0.000000 0.000995 0.010000
vertex -0.000381 0.000920 0.010000
vertex -0.000704 0.000704 0.010000
endloop
endfacet
facet normal 0.000000 0.000000 1.000000
outer loop
vertex -0.000704 0.000704 0.010000
vertex -0.000995 0.000000 0.010000
vertex -0.000704 -0.000704 0.010000
endloop
endfacet
facet normal 0.000000 0.000000 1.000000
outer loop
vertex -0.000704 -0.000704 0.010000
vertex -0.000000 -0.000995 0.010000
vertex 0.000704 -0.000704 0.010000
endloop
endfacet
facet normal -0.000002 0.000000 1.000000
outer loop
vertex 0.000704 -0.000704 0.010000
vertex 0.000995 -0.000000 0.010000
vertex 0.000704 0.000704 0.010000
endloop
endfacet
facet normal 0.000001 0.000000 1.000000
outer loop
vertex 0.000704 0.000704 0.010000
vertex 0.000000 0.000995 0.010000
vertex -0.000704 0.000704 0.010000
endloop
endfacet
facet normal 0.000000 0.000000 1.000000
outer loop
vertex -0.000704 0.000704 0.010000
vertex -0.000704 -0.000704 0.010000
vertex 0.000704 -0.000704 0.010000
endloop
endfacet
facet normal 0.000000 0.000000 1.000000
outer loop
vertex 0.000704 -0.000704 0.010000
vertex 0.000704 0.000704 0.010000
vertex -0.000704 0.000704 0.010000
endloop
endfacet
endsolid inlet
