solid inlet
facet normal -1.000000 -0.000000 0.000000
outer loop
vertex 0.000000 5.977211 4.760472
vertex 0.000000 5.994292 4.630733
vertex 0.000000 4.500000 4.500000
endloop
endfacet
facet normal -1.000000 -0.000000 -0.000000
outer loop
vertex 0.000000 4.500000 4.500000
vertex 0.000000 5.994292 4.630733
vertex 0.000000 6.000000 4.500000
endloop
endfacet
facet normal -1.000000 -0.000000 0.000000
outer loop
vertex 0.000000 4.500000 4.500000
vertex 0.000000 6.000000 4.500000
vertex 0.000000 5.994292 4.369266
endloop
endfacet
facet normal -1.000000 -0.000000 -0.000000
outer loop
vertex 0.000000 5.859461 5.133927
vertex 0.000000 5.909539 5.013030
vertex 0.000000 4.500000 4.500000
endloop
endfacet
facet normal -1.000000 -0.000000 -0.000000
outer loop
vertex 0.000000 4.500000 4.500000
vertex 0.000000 5.909539 5.013030
vertex 0.000000 5.948889 4.888228
endloop
endfacet
facet normal -1.000000 -0.000000 0.000000
outer loop
vertex 0.000000 4.500000 4.500000
vertex 0.000000 5.948889 4.888228
vertex 0.000000 5.977211 4.760472
endloop
endfacet
facet normal -1.000000 -0.000000 0.000000
outer loop
vertex 0.000000 5.649066 5.464181
vertex 0.000000 5.728728 5.360364
vertex 0.000000 4.500000 4.500000
endloop
endfacet
facet normal -1.000000 -0.000000 -0.000000
outer loop
vertex 0.000000 4.500000 4.500000
vertex 0.000000 5.728728 5.360364
vertex 0.000000 5.799038 5.250000
endloop
endfacet
facet normal -1.000000 -0.000000 0.000000
outer loop
vertex 0.000000 4.500000 4.500000
vertex 0.000000 5.799038 5.250000
vertex 0.000000 5.859461 5.133927
endloop
endfacet
facet normal -1.000000 -0.000000 -0.000000
outer loop
vertex 0.000000 5.360364 5.728728
vertex 0.000000 5.464181 5.649066
vertex 0.000000 4.500000 4.500000
endloop
endfacet
facet normal -1.000000 -0.000000 0.000000
outer loop
vertex 0.000000 4.500000 4.500000
vertex 0.000000 5.464181 5.649066
vertex 0.000000 5.560660 5.560660
endloop
endfacet
facet normal -1.000000 -0.000000 -0.000000
outer loop
vertex 0.000000 4.500000 4.500000
vertex 0.000000 5.560660 5.560660
vertex 0.000000 5.649066 5.464181
endloop
endfacet
facet normal -1.000000 -0.000000 0.000000
outer loop
vertex 0.000000 5.013030 5.909539
vertex 0.000000 5.133927 5.859461
vertex 0.000000 4.500000 4.500000
endloop
endfacet
facet normal -1.000000 -0.000000 -0.000000
outer loop
vertex 0.000000 4.500000 4.500000
vertex 0.000000 5.133927 5.859461
vertex 0.000000 5.250000 5.799038
endloop
endfacet
facet normal -1.000000 -0.000000 -0.000000
outer loop
vertex 0.000000 4.500000 4.500000
vertex 0.000000 5.250000 5.799038
vertex 0.000000 5.360364 5.728728
endloop
endfacet
facet normal -1.000000 -0.000000 0.000000
outer loop
vertex 0.000000 4.630733 5.994292
vertex 0.000000 4.760472 5.977211
vertex 0.000000 4.500000 4.500000
endloop
endfacet
facet normal -1.000000 -0.000000 0.000000
outer loop
vertex 0.000000 4.500000 4.500000
vertex 0.000000 4.760472 5.977211
vertex 0.000000 4.888228 5.948889
endloop
endfacet
facet normal -1.000000 -0.000000 -0.000000
outer loop
vertex 0.000000 4.500000 4.500000
vertex 0.000000 4.888228 5.948889
vertex 0.000000 5.013030 5.909539
endloop
endfacet
facet normal -1.000000 -0.000000 0.000000
outer loop
vertex 0.000000 4.239528 5.977211
vertex 0.000000 4.369266 5.994292
vertex 0.000000 4.500000 4.500000
endloop
endfacet
facet normal -1.000000 -0.000000 0.000000
outer loop
vertex 0.000000 4.500000 4.500000
vertex 0.000000 4.369266 5.994292
vertex 0.000000 4.500000 6.000000
endloop
endfacet
facet normal -1.000000 -0.000000 0.000000
outer loop
vertex 0.000000 4.500000 4.500000
vertex 0.000000 4.500000 6.000000
vertex 0.000000 4.630733 5.994292
endloop
endfacet
facet normal -1.000000 -0.000000 -0.000000
outer loop
vertex 0.000000 3.866072 5.859461
vertex 0.000000 3.986969 5.909539
vertex 0.000000 4.500000 4.500000
endloop
endfacet
facet normal -1.000000 -0.000000 0.000000
outer loop
vertex 0.000000 4.500000 4.500000
vertex 0.000000 3.986969 5.909539
vertex 0.000000 4.111771 5.948889
endloop
endfacet
facet normal -1.000000 -0.000000 0.000000
outer loop
vertex 0.000000 4.500000 4.500000
vertex 0.000000 4.111771 5.948889
vertex 0.000000 4.239528 5.977211
endloop
endfacet
facet normal -1.000000 -0.000000 0.000000
outer loop
vertex 0.000000 3.535818 5.649066
vertex 0.000000 3.639635 5.728728
vertex 0.000000 4.500000 4.500000
endloop
endfacet
facet normal -1.000000 -0.000000 0.000000
outer loop
vertex 0.000000 4.500000 4.500000
vertex 0.000000 3.639635 5.728728
vertex 0.000000 3.750000 5.799038
endloop
endfacet
facet normal -1.000000 -0.000000 -0.000000
outer loop
vertex 0.000000 4.500000 4.500000
vertex 0.000000 3.750000 5.799038
vertex 0.000000 3.866072 5.859461
endloop
endfacet
facet normal -1.000000 -0.000000 0.000000
outer loop
vertex 0.000000 3.271272 5.360364
vertex 0.000000 3.350933 5.464181
vertex 0.000000 4.500000 4.500000
endloop
endfacet
facet normal -1.000000 -0.000000 -0.000000
outer loop
vertex 0.000000 4.500000 4.500000
vertex 0.000000 3.350933 5.464181
vertex 0.000000 3.439340 5.560660
endloop
endfacet
facet normal -1.000000 -0.000000 -0.000000
outer loop
vertex 0.000000 4.500000 4.500000
vertex 0.000000 3.439340 5.560660
vertex 0.000000 3.535818 5.649066
endloop
endfacet
facet normal -1.000000 -0.000000 0.000000
outer loop
vertex 0.000000 3.090461 5.013030
vertex 0.000000 3.140538 5.133927
vertex 0.000000 4.500000 4.500000
endloop
endfacet
facet normal -1.000000 -0.000000 -0.000000
outer loop
vertex 0.000000 4.500000 4.500000
vertex 0.000000 3.140538 5.133927
vertex 0.000000 3.200962 5.250000
endloop
endfacet
facet normal -1.000000 -0.000000 0.000000
outer loop
vertex 0.000000 4.500000 4.500000
vertex 0.000000 3.200962 5.250000
vertex 0.000000 3.271272 5.360364
endloop
endfacet
facet normal -1.000000 -0.000000 0.000000
outer loop
vertex 0.000000 3.005708 4.630733
vertex 0.000000 3.022788 4.760472
vertex 0.000000 4.500000 4.500000
endloop
endfacet
facet normal -1.000000 -0.000000 0.000000
outer loop
vertex 0.000000 4.500000 4.500000
vertex 0.000000 3.022788 4.760472
vertex 0.000000 3.051111 4.888228
endloop
endfacet
facet normal -1.000000 -0.000000 -0.000000
outer loop
vertex 0.000000 4.500000 4.500000
vertex 0.000000 3.051111 4.888228
vertex 0.000000 3.090461 5.013030
endloop
endfacet
facet normal -1.000000 -0.000000 0.000000
outer loop
vertex 0.000000 3.022788 4.239528
vertex 0.000000 3.005708 4.369266
vertex 0.000000 4.500000 4.500000
endloop
endfacet
facet normal -1.000000 -0.000000 0.000000
outer loop
vertex 0.000000 4.500000 4.500000
vertex 0.000000 3.005708 4.369266
vertex 0.000000 3.000000 4.500000
endloop
endfacet
facet normal -1.000000 -0.000000 -0.000000
outer loop
vertex 0.000000 4.500000 4.500000
vertex 0.000000 3.000000 4.500000
vertex 0.000000 3.005708 4.630733
endloop
endfacet
facet normal -1.000000 -0.000000 -0.000000
outer loop
vertex 0.000000 3.140538 3.866072
vertex 0.000000 3.090461 3.986969
vertex 0.000000 4.500000 4.500000
endloop
endfacet
facet normal -1.000000 -0.000000 0.000000
outer loop
vertex 0.000000 4.500000 4.500000
vertex 0.000000 3.090461 3.986969
vertex 0.000000 3.051111 4.111771
endloop
endfacet
facet normal -1.000000 -0.000000 -0.000000
outer loop
vertex 0.000000 4.500000 4.500000
vertex 0.000000 3.051111 4.111771
vertex 0.000000 3.022788 4.239528
endloop
endfacet
facet normal -1.000000 -0.000000 0.000000
outer loop
vertex 0.000000 3.350933 3.535818
vertex 0.000000 3.271272 3.639635
vertex 0.000000 4.500000 4.500000
endloop
endfacet
facet normal -1.000000 -0.000000 0.000000
outer loop
vertex 0.000000 4.500000 4.500000
vertex 0.000000 3.271272 3.639635
vertex 0.000000 3.200962 3.750000
endloop
endfacet
facet normal -1.000000 -0.000000 0.000000
outer loop
vertex 0.000000 4.500000 4.500000
vertex 0.000000 3.200962 3.750000
vertex 0.000000 3.140538 3.866072
endloop
endfacet
facet normal -1.000000 -0.000000 0.000000
outer loop
vertex 0.000000 3.639635 3.271272
vertex 0.000000 3.535818 3.350933
vertex 0.000000 4.500000 4.500000
endloop
endfacet
facet normal -1.000000 -0.000000 0.000000
outer loop
vertex 0.000000 4.500000 4.500000
vertex 0.000000 3.535818 3.350933
vertex 0.000000 3.439340 3.439340
endloop
endfacet
facet normal -1.000000 -0.000000 0.000000
outer loop
vertex 0.000000 4.500000 4.500000
vertex 0.000000 3.439340 3.439340
vertex 0.000000 3.350933 3.535818
endloop
endfacet
facet normal -1.000000 -0.000000 0.000000
outer loop
vertex 0.000000 3.986969 3.090461
vertex 0.000000 3.866072 3.140538
vertex 0.000000 4.500000 4.500000
endloop
endfacet
facet normal -1.000000 -0.000000 0.000000
outer loop
vertex 0.000000 4.500000 4.500000
vertex 0.000000 3.866072 3.140538
vertex 0.000000 3.750000 3.200962
endloop
endfacet
facet normal -1.000000 -0.000000 -0.000000
outer loop
vertex 0.000000 4.500000 4.500000
vertex 0.000000 3.750000 3.200962
vertex 0.000000 3.639635 3.271272
endloop
endfacet
facet normal -1.000000 -0.000000 0.000000
outer loop
vertex 0.000000 4.369266 3.005708
vertex 0.000000 4.239528 3.022788
vertex 0.000000 4.500000 4.500000
endloop
endfacet
facet normal -1.000000 -0.000000 -0.000000
outer loop
vertex 0.000000 4.500000 4.500000
vertex 0.000000 4.239528 3.022788
vertex 0.000000 4.111771 3.051111
endloop
endfacet
facet normal -1.000000 -0.000000 -0.000000
outer loop
vertex 0.000000 4.500000 4.500000
vertex 0.000000 4.111771 3.051111
vertex 0.000000 3.986969 3.090461
endloop
endfacet
facet normal -1.000000 -0.000000 0.000000
outer loop
vertex 0.000000 4.760472 3.022788
vertex 0.000000 4.630733 3.005708
vertex 0.000000 4.500000 4.500000
endloop
endfacet
facet normal -1.000000 -0.000000 0.000000
outer loop
vertex 0.000000 4.500000 4.500000
vertex 0.000000 4.630733 3.005708
vertex 0.000000 4.500000 3.000000
endloop
endfacet
facet normal -1.000000 -0.000000 0.000000
outer loop
vertex 0.000000 4.500000 4.500000
vertex 0.000000 4.500000 3.000000
vertex 0.000000 4.369266 3.005708
endloop
endfacet
facet normal -1.000000 -0.000000 -0.000000
outer loop
vertex 0.000000 5.133927 3.140538
vertex 0.000000 5.013030 3.090461
vertex 0.000000 4.500000 4.500000
endloop
endfacet
facet normal -1.000000 -0.000000 0.000000
outer loop
vertex 0.000000 4.500000 4.500000
vertex 0.000000 5.013030 3.090461
vertex 0.000000 4.888228 3.051111
endloop
endfacet
facet normal -1.000000 -0.000000 -0.000000
outer loop
vertex 0.000000 4.500000 4.500000
vertex 0.000000 4.888228 3.051111
vertex 0.000000 4.760472 3.022788
endloop
endfacet
facet normal -1.000000 -0.000000 0.000000
outer loop
vertex 0.000000 5.464181 3.350933
vertex 0.000000 5.360364 3.271272
vertex 0.000000 4.500000 4.500000
endloop
endfacet
facet normal -1.000000 -0.000000 0.000000
outer loop
vertex 0.000000 4.500000 4.500000
vertex 0.000000 5.360364 3.271272
vertex 0.000000 5.250000 3.200962
endloop
endfacet
facet normal -1.000000 -0.000000 0.000000
outer loop
vertex 0.000000 4.500000 4.500000
vertex 0.000000 5.250000 3.200962
vertex 0.000000 5.133927 3.140538
endloop
endfacet
facet normal -1.000000 -0.000000 -0.000000
outer loop
vertex 0.000000 5.728728 3.639635
vertex 0.000000 5.649066 3.535818
vertex 0.000000 4.500000 4.500000
endloop
endfacet
facet normal -1.000000 -0.000000 0.000000
outer loop
vertex 0.000000 4.500000 4.500000
vertex 0.000000 5.649066 3.535818
vertex 0.000000 5.560660 3.439340
endloop
endfacet
facet normal -1.000000 -0.000000 -0.000000
outer loop
vertex 0.000000 4.500000 4.500000
vertex 0.000000 5.560660 3.439340
vertex 0.000000 5.464181 3.350933
endloop
endfacet
facet normal -1.000000 -0.000000 0.000000
outer loop
vertex 0.000000 5.909539 3.986969
vertex 0.000000 5.859461 3.866072
vertex 0.000000 4.500000 4.500000
endloop
endfacet
facet normal -1.000000 -0.000000 -0.000000
outer loop
vertex 0.000000 4.500000 4.500000
vertex 0.000000 5.859461 3.866072
vertex 0.000000 5.799038 3.750000
endloop
endfacet
facet normal -1.000000 -0.000000 0.000000
outer loop
vertex 0.000000 4.500000 4.500000
vertex 0.000000 5.799038 3.750000
vertex 0.000000 5.728728 3.639635
endloop
endfacet
facet normal -1.000000 -0.000000 -0.000000
outer loop
vertex 0.000000 5.994292 4.369266
vertex 0.000000 5.977211 4.239528
vertex 0.000000 4.500000 4.500000
endloop
endfacet
facet normal -1.000000 -0.000000 -0.000000
outer loop
vertex 0.000000 4.500000 4.500000
vertex 0.000000 5.977211 4.239528
vertex 0.000000 5.948889 4.111771
endloop
endfacet
facet normal -1.000000 -0.000000 0.000000
outer loop
vertex 0.000000 4.500000 4.500000
vertex 0.000000 5.948889 4.111771
vertex 0.000000 5.909539 3.986969
endloop
endfacet
endsolid inlet
