solid outlet
facet normal 1.000000 0.000000 0.000000
outer loop
vertex 120.000000 8.931635 3.718583
vertex 120.000000 8.982876 4.107799
vertex 120.000000 4.500000 4.500000
endloop
endfacet
facet normal 1.000000 0.000000 0.000000
outer loop
vertex 120.000000 4.500000 4.500000
vertex 120.000000 8.982876 4.107799
vertex 120.000000 9.000000 4.500000
endloop
endfacet
facet normal 1.000000 0.000000 0.000000
outer loop
vertex 120.000000 4.500000 4.500000
vertex 120.000000 9.000000 4.500000
vertex 120.000000 8.982876 4.892200
endloop
endfacet
facet normal 1.000000 0.000000 0.000000
outer loop
vertex 120.000000 8.578384 2.598217
vertex 120.000000 8.728617 2.960909
vertex 120.000000 4.500000 4.500000
endloop
endfacet
facet normal 1.000000 0.000000 0.000000
outer loop
vertex 120.000000 4.500000 4.500000
vertex 120.000000 8.728617 2.960909
vertex 120.000000 8.846666 3.335314
endloop
endfacet
facet normal 1.000000 0.000000 0.000000
outer loop
vertex 120.000000 4.500000 4.500000
vertex 120.000000 8.846666 3.335314
vertex 120.000000 8.931635 3.718583
endloop
endfacet
facet normal 1.000000 -0.000035 0.000000
outer loop
vertex 120.000000 7.947200 1.607455
vertex 120.000000 8.186184 1.918906
vertex 120.000000 4.500000 4.500000
endloop
endfacet
facet normal 1.000000 0.000030 0.000000
outer loop
vertex 120.000000 4.500000 4.500000
vertex 120.000000 8.186184 1.918906
vertex 120.000000 8.397114 2.250000
endloop
endfacet
facet normal 1.000000 0.000004 0.000000
outer loop
vertex 120.000000 4.500000 4.500000
vertex 120.000000 8.397114 2.250000
vertex 120.000000 8.578384 2.598217
endloop
endfacet
facet normal 1.000000 0.000000 0.000000
outer loop
vertex 120.000000 7.081094 0.813816
vertex 120.000000 7.392544 1.052800
vertex 120.000000 4.500000 4.500000
endloop
endfacet
facet normal 1.000000 0.000009 0.000000
outer loop
vertex 120.000000 4.500000 4.500000
vertex 120.000000 7.392544 1.052800
vertex 120.000000 7.681980 1.318019
endloop
endfacet
facet normal 1.000000 0.000000 0.000000
outer loop
vertex 120.000000 4.500000 4.500000
vertex 120.000000 7.681980 1.318019
vertex 120.000000 7.947200 1.607455
endloop
endfacet
facet normal 1.000000 -0.000035 0.000000
outer loop
vertex 120.000000 6.039091 0.271383
vertex 120.000000 6.401782 0.421615
vertex 120.000000 4.500000 4.500000
endloop
endfacet
facet normal 1.000000 0.000013 0.000000
outer loop
vertex 120.000000 4.500000 4.500000
vertex 120.000000 6.401782 0.421615
vertex 120.000000 6.750000 0.602885
endloop
endfacet
facet normal 1.000000 0.000028 0.000000
outer loop
vertex 120.000000 4.500000 4.500000
vertex 120.000000 6.750000 0.602885
vertex 120.000000 7.081094 0.813816
endloop
endfacet
facet normal 1.000000 -0.000069 0.000000
outer loop
vertex 120.000000 4.892200 0.017124
vertex 120.000000 5.281416 0.068365
vertex 120.000000 4.500000 4.500000
endloop
endfacet
facet normal 1.000000 -0.000030 0.000000
outer loop
vertex 120.000000 4.500000 4.500000
vertex 120.000000 5.281416 0.068365
vertex 120.000000 5.664686 0.153333
endloop
endfacet
facet normal 1.000000 0.000046 0.000000
outer loop
vertex 120.000000 4.500000 4.500000
vertex 120.000000 5.664686 0.153333
vertex 120.000000 6.039091 0.271383
endloop
endfacet
facet normal 1.000000 0.000069 0.000000
outer loop
vertex 120.000000 3.718583 0.068365
vertex 120.000000 4.107799 0.017124
vertex 120.000000 4.500000 4.500000
endloop
endfacet
facet normal 1.000000 -0.000022 0.000000
outer loop
vertex 120.000000 4.500000 4.500000
vertex 120.000000 4.107799 0.017124
vertex 120.000000 4.500000 0.000000
endloop
endfacet
facet normal 1.000000 0.000022 0.000000
outer loop
vertex 120.000000 4.500000 4.500000
vertex 120.000000 4.500000 0.000000
vertex 120.000000 4.892200 0.017124
endloop
endfacet
facet normal 1.000000 0.000035 0.000000
outer loop
vertex 120.000000 2.598217 0.421615
vertex 120.000000 2.960909 0.271383
vertex 120.000000 4.500000 4.500000
endloop
endfacet
facet normal 1.000000 -0.000046 0.000000
outer loop
vertex 120.000000 4.500000 4.500000
vertex 120.000000 2.960909 0.271383
vertex 120.000000 3.335314 0.153333
endloop
endfacet
facet normal 1.000000 0.000030 0.000000
outer loop
vertex 120.000000 4.500000 4.500000
vertex 120.000000 3.335314 0.153333
vertex 120.000000 3.718583 0.068365
endloop
endfacet
facet normal 1.000000 0.000000 0.000000
outer loop
vertex 120.000000 1.607455 1.052800
vertex 120.000000 1.918906 0.813816
vertex 120.000000 4.500000 4.500000
endloop
endfacet
facet normal 1.000000 -0.000028 0.000000
outer loop
vertex 120.000000 4.500000 4.500000
vertex 120.000000 1.918906 0.813816
vertex 120.000000 2.250000 0.602885
endloop
endfacet
facet normal 1.000000 -0.000013 0.000000
outer loop
vertex 120.000000 4.500000 4.500000
vertex 120.000000 2.250000 0.602885
vertex 120.000000 2.598217 0.421615
endloop
endfacet
facet normal 1.000000 0.000035 0.000000
outer loop
vertex 120.000000 0.813816 1.918906
vertex 120.000000 1.052800 1.607455
vertex 120.000000 4.500000 4.500000
endloop
endfacet
facet normal 1.000000 0.000000 0.000000
outer loop
vertex 120.000000 4.500000 4.500000
vertex 120.000000 1.052800 1.607455
vertex 120.000000 1.318019 1.318019
endloop
endfacet
facet normal 1.000000 -0.000009 0.000000
outer loop
vertex 120.000000 4.500000 4.500000
vertex 120.000000 1.318019 1.318019
vertex 120.000000 1.607455 1.052800
endloop
endfacet
facet normal 1.000000 0.000000 0.000000
outer loop
vertex 120.000000 0.271383 2.960909
vertex 120.000000 0.421615 2.598217
vertex 120.000000 4.500000 4.500000
endloop
endfacet
facet normal 1.000000 -0.000004 0.000000
outer loop
vertex 120.000000 4.500000 4.500000
vertex 120.000000 0.421615 2.598217
vertex 120.000000 0.602885 2.250000
endloop
endfacet
facet normal 1.000000 -0.000030 0.000000
outer loop
vertex 120.000000 4.500000 4.500000
vertex 120.000000 0.602885 2.250000
vertex 120.000000 0.813816 1.918906
endloop
endfacet
facet normal 1.000000 0.000000 0.000000
outer loop
vertex 120.000000 0.017124 4.107799
vertex 120.000000 0.068365 3.718583
vertex 120.000000 4.500000 4.500000
endloop
endfacet
facet normal 1.000000 0.000000 0.000000
outer loop
vertex 120.000000 4.500000 4.500000
vertex 120.000000 0.068365 3.718583
vertex 120.000000 0.153333 3.335314
endloop
endfacet
facet normal 1.000000 0.000000 0.000000
outer loop
vertex 120.000000 4.500000 4.500000
vertex 120.000000 0.153333 3.335314
vertex 120.000000 0.271383 2.960909
endloop
endfacet
facet normal 1.000000 -0.000004 0.000000
outer loop
vertex 120.000000 0.068365 5.281416
vertex 120.000000 0.017124 4.892200
vertex 120.000000 4.500000 4.500000
endloop
endfacet
facet normal 1.000000 0.000000 0.000000
outer loop
vertex 120.000000 4.500000 4.500000
vertex 120.000000 0.017124 4.892200
vertex 120.000000 0.000000 4.500000
endloop
endfacet
facet normal 1.000000 0.000000 0.000000
outer loop
vertex 120.000000 4.500000 4.500000
vertex 120.000000 0.000000 4.500000
vertex 120.000000 0.017124 4.107799
endloop
endfacet
facet normal 1.000000 0.000000 0.000000
outer loop
vertex 120.000000 0.421615 6.401782
vertex 120.000000 0.271383 6.039091
vertex 120.000000 4.500000 4.500000
endloop
endfacet
facet normal 1.000000 0.000000 0.000000
outer loop
vertex 120.000000 4.500000 4.500000
vertex 120.000000 0.271383 6.039091
vertex 120.000000 0.153333 5.664686
endloop
endfacet
facet normal 1.000000 0.000009 0.000000
outer loop
vertex 120.000000 4.500000 4.500000
vertex 120.000000 0.153333 5.664686
vertex 120.000000 0.068365 5.281416
endloop
endfacet
facet normal 1.000000 0.000000 0.000000
outer loop
vertex 120.000000 1.052800 7.392544
vertex 120.000000 0.813816 7.081094
vertex 120.000000 4.500000 4.500000
endloop
endfacet
facet normal 1.000000 -0.000013 0.000000
outer loop
vertex 120.000000 4.500000 4.500000
vertex 120.000000 0.813816 7.081094
vertex 120.000000 0.602885 6.750000
endloop
endfacet
facet normal 1.000000 -0.000004 0.000000
outer loop
vertex 120.000000 4.500000 4.500000
vertex 120.000000 0.602885 6.750000
vertex 120.000000 0.421615 6.401782
endloop
endfacet
facet normal 1.000000 0.000000 0.000000
outer loop
vertex 120.000000 1.918906 8.186184
vertex 120.000000 1.607455 7.947200
vertex 120.000000 4.500000 4.500000
endloop
endfacet
facet normal 1.000000 0.000009 0.000000
outer loop
vertex 120.000000 4.500000 4.500000
vertex 120.000000 1.607455 7.947200
vertex 120.000000 1.318019 7.681980
endloop
endfacet
facet normal 1.000000 0.000004 0.000000
outer loop
vertex 120.000000 4.500000 4.500000
vertex 120.000000 1.318019 7.681980
vertex 120.000000 1.052800 7.392544
endloop
endfacet
facet normal 1.000000 0.000000 0.000000
outer loop
vertex 120.000000 2.960909 8.728617
vertex 120.000000 2.598217 8.578384
vertex 120.000000 4.500000 4.500000
endloop
endfacet
facet normal 1.000000 0.000000 0.000000
outer loop
vertex 120.000000 4.500000 4.500000
vertex 120.000000 2.598217 8.578384
vertex 120.000000 2.250000 8.397114
endloop
endfacet
facet normal 1.000000 0.000000 0.000000
outer loop
vertex 120.000000 4.500000 4.500000
vertex 120.000000 2.250000 8.397114
vertex 120.000000 1.918906 8.186184
endloop
endfacet
facet normal 1.000000 0.000069 0.000000
outer loop
vertex 120.000000 4.107799 8.982876
vertex 120.000000 3.718583 8.931635
vertex 120.000000 4.500000 4.500000
endloop
endfacet
facet normal 1.000000 0.000000 0.000000
outer loop
vertex 120.000000 4.500000 4.500000
vertex 120.000000 3.718583 8.931635
vertex 120.000000 3.335314 8.846666
endloop
endfacet
facet normal 1.000000 0.000000 0.000000
outer loop
vertex 120.000000 4.500000 4.500000
vertex 120.000000 3.335314 8.846666
vertex 120.000000 2.960909 8.728617
endloop
endfacet
facet normal 1.000000 -0.000069 0.000000
outer loop
vertex 120.000000 5.281416 8.931635
vertex 120.000000 4.892200 8.982876
vertex 120.000000 4.500000 4.500000
endloop
endfacet
facet normal 1.000000 0.000035 0.000000
outer loop
vertex 120.000000 4.500000 4.500000
vertex 120.000000 4.892200 8.982876
vertex 120.000000 4.500000 9.000000
endloop
endfacet
facet normal 1.000000 -0.000035 0.000000
outer loop
vertex 120.000000 4.500000 4.500000
vertex 120.000000 4.500000 9.000000
vertex 120.000000 4.107799 8.982876
endloop
endfacet
facet normal 1.000000 0.000000 0.000000
outer loop
vertex 120.000000 6.401782 8.578384
vertex 120.000000 6.039091 8.728617
vertex 120.000000 4.500000 4.500000
endloop
endfacet
facet normal 1.000000 0.000000 0.000000
outer loop
vertex 120.000000 4.500000 4.500000
vertex 120.000000 6.039091 8.728617
vertex 120.000000 5.664686 8.846666
endloop
endfacet
facet normal 1.000000 0.000000 0.000000
outer loop
vertex 120.000000 4.500000 4.500000
vertex 120.000000 5.664686 8.846666
vertex 120.000000 5.281416 8.931635
endloop
endfacet
facet normal 1.000000 0.000000 0.000000
outer loop
vertex 120.000000 7.392544 7.947200
vertex 120.000000 7.081094 8.186184
vertex 120.000000 4.500000 4.500000
endloop
endfacet
facet normal 1.000000 0.000000 0.000000
outer loop
vertex 120.000000 4.500000 4.500000
vertex 120.000000 7.081094 8.186184
vertex 120.000000 6.750000 8.397114
endloop
endfacet
facet normal 1.000000 0.000000 0.000000
outer loop
vertex 120.000000 4.500000 4.500000
vertex 120.000000 6.750000 8.397114
vertex 120.000000 6.401782 8.578384
endloop
endfacet
facet normal 1.000000 0.000000 0.000000
outer loop
vertex 120.000000 8.186184 7.081094
vertex 120.000000 7.947200 7.392544
vertex 120.000000 4.500000 4.500000
endloop
endfacet
facet normal 1.000000 -0.000004 0.000000
outer loop
vertex 120.000000 4.500000 4.500000
vertex 120.000000 7.947200 7.392544
vertex 120.000000 7.681980 7.681980
endloop
endfacet
facet normal 1.000000 -0.000009 0.000000
outer loop
vertex 120.000000 4.500000 4.500000
vertex 120.000000 7.681980 7.681980
vertex 120.000000 7.392544 7.947200
endloop
endfacet
facet normal 1.000000 0.000000 0.000000
outer loop
vertex 120.000000 8.728617 6.039091
vertex 120.000000 8.578384 6.401782
vertex 120.000000 4.500000 4.500000
endloop
endfacet
facet normal 1.000000 0.000004 0.000000
outer loop
vertex 120.000000 4.500000 4.500000
vertex 120.000000 8.578384 6.401782
vertex 120.000000 8.397114 6.750000
endloop
endfacet
facet normal 1.000000 0.000013 0.000000
outer loop
vertex 120.000000 4.500000 4.500000
vertex 120.000000 8.397114 6.750000
vertex 120.000000 8.186184 7.081094
endloop
endfacet
facet normal 1.000000 0.000000 0.000000
outer loop
vertex 120.000000 8.982876 4.892200
vertex 120.000000 8.931635 5.281416
vertex 120.000000 4.500000 4.500000
endloop
endfacet
facet normal 1.000000 -0.000009 0.000000
outer loop
vertex 120.000000 4.500000 4.500000
vertex 120.000000 8.931635 5.281416
vertex 120.000000 8.846666 5.664686
endloop
endfacet
facet normal 1.000000 0.000000 0.000000
outer loop
vertex 120.000000 4.500000 4.500000
vertex 120.000000 8.846666 5.664686
vertex 120.000000 8.728617 6.039091
endloop
endfacet
endsolid outlet
