solid inlet
facet normal -0.000124 0.000000 1.000000
outer loop
vertex 0.700370 0.705084 9.502041
vertex 0.577995 0.812734 9.502041
vertex 0.572394 0.816186 9.502041
endloop
endfacet
facet normal -0.000082 0.000000 1.000000
outer loop
vertex 0.572394 0.816186 9.502041
vertex 0.433710 0.901661 9.502041
vertex 0.427597 0.904118 9.502041
endloop
endfacet
facet normal -0.000307 0.000000 1.000000
outer loop
vertex 0.427597 0.904118 9.502041
vertex 0.276242 0.964953 9.502041
vertex 0.269801 0.966340 9.502041
endloop
endfacet
facet normal -0.000049 0.000000 1.000000
outer loop
vertex 0.269801 0.966340 9.502041
vertex 0.110350 1.000659 9.502041
vertex 0.103777 1.000938 9.502041
endloop
endfacet
facet normal 0.000010 0.000000 1.000000
outer loop
vertex 0.103777 1.000938 9.502041
vertex -0.058959 1.007861 9.502041
vertex -0.065490 1.007024 9.502041
endloop
endfacet
facet normal 0.000021 0.000000 1.000000
outer loop
vertex -0.065490 1.007024 9.502041
vertex -0.227170 0.986315 9.502041
vertex -0.233468 0.984387 9.502041
endloop
endfacet
facet normal 0.000000 0.000000 1.000000
outer loop
vertex -0.233468 0.984387 9.502041
vertex -0.389399 0.936633 9.502041
vertex -0.395281 0.933669 9.502041
endloop
endfacet
facet normal 0.000082 0.000000 1.000000
outer loop
vertex -0.395281 0.933669 9.502041
vertex -0.540887 0.860279 9.502041
vertex -0.546180 0.856362 9.502041
endloop
endfacet
facet normal -0.000536 0.000000 1.000000
outer loop
vertex -0.546180 0.856362 9.502041
vertex -0.677237 0.759390 9.502041
vertex -0.681796 0.754639 9.502041
endloop
endfacet
facet normal 0.000244 0.000000 1.000000
outer loop
vertex -0.681796 0.754639 9.502041
vertex -0.794667 0.637016 9.502041
vertex -0.798350 0.631559 9.502041
endloop
endfacet
facet normal -0.000372 0.000000 1.000000
outer loop
vertex -0.798350 0.631559 9.502041
vertex -0.889515 0.496454 9.502041
vertex -0.892231 0.490454 9.502041
endloop
endfacet
facet normal -0.000491 0.000000 1.000000
outer loop
vertex -0.892231 0.490454 9.502041
vertex -0.959460 0.341915 9.502041
vertex -0.961119 0.335540 9.502041
endloop
endfacet
facet normal 0.000206 0.000000 1.000000
outer loop
vertex -0.961119 0.335540 9.502041
vertex -1.002184 0.177732 9.502041
vertex -1.002744 0.171173 9.502041
endloop
endfacet
facet normal 0.000205 0.000000 1.000000
outer loop
vertex -1.002744 0.171173 9.502041
vertex -1.016589 0.008789 9.502041
vertex -1.016029 0.002228 9.502041
endloop
endfacet
facet normal 0.000534 0.000000 1.000000
outer loop
vertex -1.016029 0.002228 9.502041
vertex -1.002184 -0.160215 9.502041
vertex -1.000526 -0.166587 9.502041
endloop
endfacet
facet normal 0.000164 0.000000 1.000000
outer loop
vertex -1.000526 -0.166587 9.502041
vertex -0.959460 -0.324337 9.502041
vertex -0.956745 -0.330339 9.502041
endloop
endfacet
facet normal -0.000330 0.000000 1.000000
outer loop
vertex -0.956745 -0.330339 9.502041
vertex -0.889515 -0.478937 9.502041
vertex -0.885833 -0.484392 9.502041
endloop
endfacet
facet normal 0.000163 0.000000 1.000000
outer loop
vertex -0.885833 -0.484392 9.502041
vertex -0.794667 -0.619438 9.502041
vertex -0.790108 -0.624191 9.502041
endloop
endfacet
facet normal -0.001236 0.000000 0.999999
outer loop
vertex -0.790108 -0.624191 9.502041
vertex -0.677237 -0.741873 9.502041
vertex -0.671944 -0.745790 9.502041
endloop
endfacet
facet normal 0.000000 0.000000 1.000000
outer loop
vertex -0.671944 -0.745790 9.502041
vertex -0.540887 -0.842763 9.502041
vertex -0.535005 -0.845727 9.502041
endloop
endfacet
facet normal -0.000308 0.000000 1.000000
outer loop
vertex -0.535005 -0.845727 9.502041
vertex -0.389399 -0.919117 9.502041
vertex -0.383101 -0.921045 9.502041
endloop
endfacet
facet normal 0.000092 0.000000 1.000000
outer loop
vertex -0.383101 -0.921045 9.502041
vertex -0.227170 -0.968799 9.502041
vertex -0.220639 -0.969635 9.502041
endloop
endfacet
facet normal -0.000102 0.000000 1.000000
outer loop
vertex -0.220639 -0.969635 9.502041
vertex -0.058959 -0.990344 9.502041
vertex -0.052386 -0.990062 9.502041
endloop
endfacet
facet normal 0.000021 0.000000 1.000000
outer loop
vertex -0.052386 -0.990062 9.502041
vertex 0.110350 -0.983081 9.502041
vertex 0.116791 -0.981694 9.502041
endloop
endfacet
facet normal -0.000041 0.000000 1.000000
outer loop
vertex 0.116791 -0.981694 9.502041
vertex 0.276242 -0.947376 9.502041
vertex 0.282355 -0.944921 9.502041
endloop
endfacet
facet normal -0.000123 0.000000 1.000000
outer loop
vertex 0.282355 -0.944921 9.502041
vertex 0.433710 -0.884144 9.502041
vertex 0.439312 -0.880691 9.502041
endloop
endfacet
facet normal 0.000371 0.000000 1.000000
outer loop
vertex 0.439312 -0.880691 9.502041
vertex 0.577995 -0.795217 9.502041
vertex 0.582938 -0.790866 9.502041
endloop
endfacet
facet normal 0.000041 0.000000 1.000000
outer loop
vertex 0.582938 -0.790866 9.502041
vertex 0.705313 -0.683158 9.502041
vertex 0.709450 -0.678035 9.502041
endloop
endfacet
facet normal 0.000123 0.000000 1.000000
outer loop
vertex 0.709450 -0.678035 9.502041
vertex 0.811879 -0.551201 9.502041
vertex 0.815092 -0.545453 9.502041
endloop
endfacet
facet normal 0.000615 0.000000 1.000000
outer loop
vertex 0.815092 -0.545453 9.502041
vertex 0.894642 -0.403132 9.502041
vertex 0.896836 -0.396924 9.502041
endloop
endfacet
facet normal -0.000573 0.000000 1.000000
outer loop
vertex 0.896836 -0.396924 9.502041
vertex 0.951160 -0.243222 9.502041
vertex 0.952269 -0.236732 9.502041
endloop
endfacet
facet normal 0.000072 0.000000 1.000000
outer loop
vertex 0.952269 -0.236732 9.502041
vertex 0.979724 -0.076049 9.502041
vertex 0.983361 0.005495 9.502041
endloop
endfacet
facet normal -0.004977 0.000000 0.999988
outer loop
vertex 0.983361 0.005495 9.502041
vertex 0.983361 0.012080 9.502041
vertex 0.979724 0.093566 9.502041
endloop
endfacet
facet normal -0.999878 0.000000 0.015623
outer loop
vertex 0.979724 0.093566 9.502041
vertex 0.978615 0.100056 9.502041
vertex 0.951160 0.260739 9.502041
endloop
endfacet
facet normal 0.000000 0.000000 1.000000
outer loop
vertex 0.951160 0.260739 9.502041
vertex 0.948965 0.266947 9.502041
vertex 0.894642 0.420649 9.502041
endloop
endfacet
facet normal -0.000329 0.000000 1.000000
outer loop
vertex 0.891429 0.426398 9.502041
vertex 0.811879 0.568718 9.502041
vertex 0.807742 0.573844 9.502041
endloop
endfacet
facet normal 0.000118 0.000000 1.000000
outer loop
vertex 0.951160 0.260739 9.502041
vertex 0.894642 0.420649 9.502041
vertex 0.891429 0.426398 9.502041
endloop
endfacet
facet normal 0.000000 0.000000 1.000000
outer loop
vertex 0.983361 0.005495 9.502041
vertex 0.979724 0.093566 9.502041
vertex 0.951160 0.260739 9.502041
endloop
endfacet
facet normal 0.000000 0.000000 1.000000
outer loop
vertex 0.896836 -0.396924 9.502041
vertex 0.952269 -0.236732 9.502041
vertex 0.983361 0.005495 9.502041
endloop
endfacet
facet normal -0.000049 0.000000 1.000000
outer loop
vertex 0.709450 -0.678035 9.502041
vertex 0.815092 -0.545453 9.502041
vertex 0.896836 -0.396924 9.502041
endloop
endfacet
facet normal -0.000049 0.000000 1.000000
outer loop
vertex 0.439312 -0.880691 9.502041
vertex 0.582938 -0.790866 9.502041
vertex 0.709450 -0.678035 9.502041
endloop
endfacet
facet normal 0.000000 0.000000 1.000000
outer loop
vertex 0.116791 -0.981694 9.502041
vertex 0.282355 -0.944921 9.502041
vertex 0.439312 -0.880691 9.502041
endloop
endfacet
facet normal 0.000003 0.000000 1.000000
outer loop
vertex -0.220639 -0.969635 9.502041
vertex -0.052386 -0.990062 9.502041
vertex 0.116791 -0.981694 9.502041
endloop
endfacet
facet normal 0.000000 0.000000 1.000000
outer loop
vertex -0.535005 -0.845727 9.502041
vertex -0.383101 -0.921045 9.502041
vertex -0.220639 -0.969635 9.502041
endloop
endfacet
facet normal 0.000000 0.000000 1.000000
outer loop
vertex -0.790108 -0.624191 9.502041
vertex -0.671944 -0.745790 9.502041
vertex -0.535005 -0.845727 9.502041
endloop
endfacet
facet normal -0.000049 0.000000 1.000000
outer loop
vertex -0.956745 -0.330339 9.502041
vertex -0.885833 -0.484392 9.502041
vertex -0.790108 -0.624191 9.502041
endloop
endfacet
facet normal -0.000098 0.000000 1.000000
outer loop
vertex -1.016029 0.002228 9.502041
vertex -1.000526 -0.166587 9.502041
vertex -0.956745 -0.330339 9.502041
endloop
endfacet
facet normal 0.000049 0.000000 1.000000
outer loop
vertex -0.961119 0.335540 9.502041
vertex -1.002744 0.171173 9.502041
vertex -1.016029 0.002228 9.502041
endloop
endfacet
facet normal 0.000049 0.000000 1.000000
outer loop
vertex -0.798350 0.631559 9.502041
vertex -0.892231 0.490454 9.502041
vertex -0.961119 0.335540 9.502041
endloop
endfacet
facet normal 0.000049 0.000000 1.000000
outer loop
vertex -0.546180 0.856362 9.502041
vertex -0.681796 0.754639 9.502041
vertex -0.798350 0.631559 9.502041
endloop
endfacet
facet normal 0.000000 0.000000 1.000000
outer loop
vertex -0.233468 0.984387 9.502041
vertex -0.395281 0.933669 9.502041
vertex -0.546180 0.856362 9.502041
endloop
endfacet
facet normal 0.000000 0.000000 1.000000
outer loop
vertex 0.103777 1.000938 9.502041
vertex -0.065490 1.007024 9.502041
vertex -0.233468 0.984387 9.502041
endloop
endfacet
facet normal 0.000024 0.000000 1.000000
outer loop
vertex 0.427597 0.904118 9.502041
vertex 0.269801 0.966340 9.502041
vertex 0.103777 1.000938 9.502041
endloop
endfacet
facet normal 0.000025 0.000000 1.000000
outer loop
vertex 0.700370 0.705084 9.502041
vertex 0.572394 0.816186 9.502041
vertex 0.427597 0.904118 9.502041
endloop
endfacet
facet normal 0.000410 0.000000 1.000000
outer loop
vertex 0.807742 0.573844 9.502041
vertex 0.705313 0.700736 9.502041
vertex 0.700370 0.705084 9.502041
endloop
endfacet
facet normal 0.000047 0.000000 1.000000
outer loop
vertex 0.951160 0.260739 9.502041
vertex 0.891429 0.426398 9.502041
vertex 0.807742 0.573844 9.502041
endloop
endfacet
facet normal 0.000000 0.000000 1.000000
outer loop
vertex 0.896836 -0.396924 9.502041
vertex 0.983361 0.005495 9.502041
vertex 0.951160 0.260739 9.502041
endloop
endfacet
facet normal 0.000013 0.000000 1.000000
outer loop
vertex 0.439312 -0.880691 9.502041
vertex 0.709450 -0.678035 9.502041
vertex 0.896836 -0.396924 9.502041
endloop
endfacet
facet normal 0.000000 0.000000 1.000000
outer loop
vertex -0.220639 -0.969635 9.502041
vertex 0.116791 -0.981694 9.502041
vertex 0.439312 -0.880691 9.502041
endloop
endfacet
facet normal 0.000000 0.000000 1.000000
outer loop
vertex -0.790108 -0.624191 9.502041
vertex -0.535005 -0.845727 9.502041
vertex -0.220639 -0.969635 9.502041
endloop
endfacet
facet normal 0.000013 0.000000 1.000000
outer loop
vertex -1.016029 0.002228 9.502041
vertex -0.956745 -0.330339 9.502041
vertex -0.790108 -0.624191 9.502041
endloop
endfacet
facet normal -0.000013 0.000000 1.000000
outer loop
vertex -0.798350 0.631559 9.502041
vertex -0.961119 0.335540 9.502041
vertex -1.016029 0.002228 9.502041
endloop
endfacet
facet normal 0.000000 0.000000 1.000000
outer loop
vertex -0.233468 0.984387 9.502041
vertex -0.546180 0.856362 9.502041
vertex -0.798350 0.631559 9.502041
endloop
endfacet
facet normal -0.000001 0.000000 1.000000
outer loop
vertex 0.427597 0.904118 9.502041
vertex 0.103777 1.000938 9.502041
vertex -0.233468 0.984387 9.502041
endloop
endfacet
facet normal -0.000017 0.000000 1.000000
outer loop
vertex 0.807742 0.573844 9.502041
vertex 0.700370 0.705084 9.502041
vertex 0.427597 0.904118 9.502041
endloop
endfacet
facet normal 0.000009 0.000000 1.000000
outer loop
vertex 0.896836 -0.396924 9.502041
vertex 0.951160 0.260739 9.502041
vertex 0.807742 0.573844 9.502041
endloop
endfacet
facet normal 0.000003 0.000000 1.000000
outer loop
vertex -0.220639 -0.969635 9.502041
vertex 0.439312 -0.880691 9.502041
vertex 0.896836 -0.396924 9.502041
endloop
endfacet
facet normal 0.000000 0.000000 1.000000
outer loop
vertex -1.016029 0.002228 9.502041
vertex -0.790108 -0.624191 9.502041
vertex -0.220639 -0.969635 9.502041
endloop
endfacet
facet normal 0.000003 0.000000 1.000000
outer loop
vertex -0.233468 0.984387 9.502041
vertex -0.798350 0.631559 9.502041
vertex -1.016029 0.002228 9.502041
endloop
endfacet
facet normal -0.000001 0.000000 1.000000
outer loop
vertex 0.807742 0.573844 9.502041
vertex 0.427597 0.904118 9.502041
vertex -0.233468 0.984387 9.502041
endloop
endfacet
facet normal -0.000003 0.000000 1.000000
outer loop
vertex -0.220639 -0.969635 9.502041
vertex 0.896836 -0.396924 9.502041
vertex 0.807742 0.573844 9.502041
endloop
endfacet
facet normal -0.000001 0.000000 1.000000
outer loop
vertex -0.233468 0.984387 9.502041
vertex -1.016029 0.002228 9.502041
vertex -0.220639 -0.969635 9.502041
endloop
endfacet
facet normal 0.000001 0.000000 1.000000
outer loop
vertex -0.233468 0.984387 9.502041
vertex -0.220639 -0.969635 9.502041
vertex 0.807742 0.573844 9.502041
endloop
endfacet
endsolid inlet
