solid inlet
facet normal 0.000413 0.000000 1.000000
outer loop
vertex 0.700370 0.705084 11.999540
vertex 0.577995 0.812734 11.999540
vertex 0.572394 0.816186 11.999540
endloop
endfacet
facet normal 0.000615 0.000000 1.000000
outer loop
vertex 0.572394 0.816186 11.999540
vertex 0.433710 0.901661 11.999540
vertex 0.427597 0.904118 11.999540
endloop
endfacet
facet normal -0.000205 0.000000 1.000000
outer loop
vertex 0.427597 0.904118 11.999540
vertex 0.276242 0.964953 11.999540
vertex 0.269801 0.966340 11.999540
endloop
endfacet
facet normal -0.000226 0.000000 1.000000
outer loop
vertex 0.269801 0.966340 11.999540
vertex 0.110350 1.000659 11.999540
vertex 0.103777 1.000938 11.999540
endloop
endfacet
facet normal 0.000031 0.000000 1.000000
outer loop
vertex 0.103777 1.000938 11.999540
vertex -0.058959 1.007861 11.999540
vertex -0.065490 1.007024 11.999540
endloop
endfacet
facet normal -0.000082 0.000000 1.000000
outer loop
vertex -0.065490 1.007024 11.999540
vertex -0.227170 0.986315 11.999540
vertex -0.233468 0.984387 11.999540
endloop
endfacet
facet normal 0.000082 0.000000 1.000000
outer loop
vertex -0.233468 0.984387 11.999540
vertex -0.389399 0.936633 11.999540
vertex -0.395281 0.933669 11.999540
endloop
endfacet
facet normal -0.000123 0.000000 1.000000
outer loop
vertex -0.395281 0.933669 11.999540
vertex -0.540887 0.860279 11.999540
vertex -0.546180 0.856362 11.999540
endloop
endfacet
facet normal -0.000413 0.000000 1.000000
outer loop
vertex -0.546180 0.856362 11.999540
vertex -0.677237 0.759390 11.999540
vertex -0.681796 0.754639 11.999540
endloop
endfacet
facet normal -0.000081 0.000000 1.000000
outer loop
vertex -0.681796 0.754639 11.999540
vertex -0.794668 0.637016 11.999540
vertex -0.798350 0.631559 11.999540
endloop
endfacet
facet normal -0.000165 0.000000 1.000000
outer loop
vertex -0.798350 0.631559 11.999540
vertex -0.889515 0.496454 11.999540
vertex -0.892231 0.490454 11.999540
endloop
endfacet
facet normal -0.000736 0.000000 1.000000
outer loop
vertex -0.892231 0.490454 11.999540
vertex -0.959460 0.341915 11.999540
vertex -0.961119 0.335540 11.999540
endloop
endfacet
facet normal -0.000411 0.000000 1.000000
outer loop
vertex -0.961119 0.335540 11.999540
vertex -1.002184 0.177732 11.999540
vertex -1.002744 0.171173 11.999540
endloop
endfacet
facet normal 0.000410 0.000000 1.000000
outer loop
vertex -1.002744 0.171173 11.999540
vertex -1.016589 0.008789 11.999540
vertex -1.016029 0.002228 11.999540
endloop
endfacet
facet normal -0.000740 0.000000 1.000000
outer loop
vertex -1.016029 0.002228 11.999540
vertex -1.002184 -0.160215 11.999540
vertex -1.000526 -0.166587 11.999540
endloop
endfacet
facet normal -0.000164 0.000000 1.000000
outer loop
vertex -1.000526 -0.166587 11.999540
vertex -0.959460 -0.324337 11.999540
vertex -0.956745 -0.330339 11.999540
endloop
endfacet
facet normal -0.000083 0.000000 1.000000
outer loop
vertex -0.956745 -0.330339 11.999540
vertex -0.889515 -0.478937 11.999540
vertex -0.885833 -0.484392 11.999540
endloop
endfacet
facet normal -0.000449 0.000000 1.000000
outer loop
vertex -0.885833 -0.484392 11.999540
vertex -0.794668 -0.619438 11.999540
vertex -0.790108 -0.624191 11.999540
endloop
endfacet
facet normal -0.000124 0.000000 1.000000
outer loop
vertex -0.790108 -0.624191 11.999540
vertex -0.677237 -0.741873 11.999540
vertex -0.671944 -0.745790 11.999540
endloop
endfacet
facet normal -0.000574 0.000000 1.000000
outer loop
vertex -0.671944 -0.745790 11.999540
vertex -0.540887 -0.842763 11.999540
vertex -0.535005 -0.845727 11.999540
endloop
endfacet
facet normal 0.000082 0.000000 1.000000
outer loop
vertex -0.535005 -0.845727 11.999540
vertex -0.389399 -0.919117 11.999540
vertex -0.383101 -0.921045 11.999540
endloop
endfacet
facet normal 0.000359 0.000000 1.000000
outer loop
vertex -0.383101 -0.921045 11.999540
vertex -0.227170 -0.968799 11.999540
vertex -0.220639 -0.969635 11.999540
endloop
endfacet
facet normal -0.000049 0.000000 1.000000
outer loop
vertex -0.220639 -0.969635 11.999540
vertex -0.058959 -0.990344 11.999540
vertex -0.052386 -0.990062 11.999540
endloop
endfacet
facet normal 0.000041 0.000000 1.000000
outer loop
vertex -0.052386 -0.990062 11.999540
vertex 0.110350 -0.983081 11.999540
vertex 0.116791 -0.981694 11.999540
endloop
endfacet
facet normal -0.000041 0.000000 1.000000
outer loop
vertex 0.116791 -0.981694 11.999540
vertex 0.276242 -0.947376 11.999540
vertex 0.282355 -0.944921 11.999540
endloop
endfacet
facet normal 0.000409 0.000000 1.000000
outer loop
vertex 0.282355 -0.944921 11.999540
vertex 0.433710 -0.884144 11.999540
vertex 0.439312 -0.880691 11.999540
endloop
endfacet
facet normal 0.001030 0.000000 0.999999
outer loop
vertex 0.439312 -0.880691 11.999540
vertex 0.577995 -0.795217 11.999540
vertex 0.582938 -0.790866 11.999540
endloop
endfacet
facet normal -0.000329 0.000000 1.000000
outer loop
vertex 0.582938 -0.790866 11.999540
vertex 0.705313 -0.683158 11.999540
vertex 0.709450 -0.678035 11.999540
endloop
endfacet
facet normal 0.000247 0.000000 1.000000
outer loop
vertex 0.709450 -0.678035 11.999540
vertex 0.811879 -0.551201 11.999540
vertex 0.815092 -0.545453 11.999540
endloop
endfacet
facet normal -0.000082 0.000000 1.000000
outer loop
vertex 0.815092 -0.545453 11.999540
vertex 0.894642 -0.403132 11.999540
vertex 0.896836 -0.396924 11.999540
endloop
endfacet
facet normal -0.000655 0.000000 1.000000
outer loop
vertex 0.896836 -0.396924 11.999540
vertex 0.951160 -0.243222 11.999540
vertex 0.952269 -0.236732 11.999540
endloop
endfacet
facet normal -0.000072 0.000000 1.000000
outer loop
vertex 0.952269 -0.236732 11.999540
vertex 0.979724 -0.076049 11.999540
vertex 0.983361 0.005495 11.999540
endloop
endfacet
facet normal -0.000329 0.000000 1.000000
outer loop
vertex 0.891429 0.426398 11.999540
vertex 0.811879 0.568718 11.999540
vertex 0.807742 0.573844 11.999540
endloop
endfacet
facet normal 0.000000 0.000000 1.000000
outer loop
vertex 0.951160 0.260739 11.999540
vertex 0.948965 0.266947 11.999540
vertex 0.891429 0.426398 11.999540
endloop
endfacet
facet normal 0.000246 0.000000 1.000000
outer loop
vertex 0.948965 0.266947 11.999540
vertex 0.894642 0.420649 11.999540
vertex 0.891429 0.426398 11.999540
endloop
endfacet
facet normal -0.001849 0.000000 0.999998
outer loop
vertex 0.951160 0.260739 11.999540
vertex 0.983361 0.005495 11.999540
vertex 0.983225 0.012078 11.999540
endloop
endfacet
facet normal -0.000881 0.000000 1.000000
outer loop
vertex 0.983225 0.012078 11.999540
vertex 0.979724 0.093566 11.999540
vertex 0.978615 0.100056 11.999540
endloop
endfacet
facet normal 0.000142 0.000000 1.000000
outer loop
vertex 0.983225 0.012078 11.999540
vertex 0.978615 0.100056 11.999540
vertex 0.951160 0.260739 11.999540
endloop
endfacet
facet normal 0.000056 0.000000 1.000000
outer loop
vertex 0.896836 -0.396924 11.999540
vertex 0.952269 -0.236732 11.999540
vertex 0.983361 0.005495 11.999540
endloop
endfacet
facet normal 0.000000 0.000000 1.000000
outer loop
vertex 0.709450 -0.678035 11.999540
vertex 0.815092 -0.545453 11.999540
vertex 0.896836 -0.396924 11.999540
endloop
endfacet
facet normal -0.000049 0.000000 1.000000
outer loop
vertex 0.439312 -0.880691 11.999540
vertex 0.582938 -0.790866 11.999540
vertex 0.709450 -0.678035 11.999540
endloop
endfacet
facet normal 0.000025 0.000000 1.000000
outer loop
vertex 0.116791 -0.981694 11.999540
vertex 0.282355 -0.944921 11.999540
vertex 0.439312 -0.880691 11.999540
endloop
endfacet
facet normal 0.000000 0.000000 1.000000
outer loop
vertex -0.220639 -0.969635 11.999540
vertex -0.052386 -0.990062 11.999540
vertex 0.116791 -0.981694 11.999540
endloop
endfacet
facet normal 0.000000 0.000000 1.000000
outer loop
vertex -0.535005 -0.845727 11.999540
vertex -0.383101 -0.921045 11.999540
vertex -0.220639 -0.969635 11.999540
endloop
endfacet
facet normal 0.000000 0.000000 1.000000
outer loop
vertex -0.790108 -0.624191 11.999540
vertex -0.671944 -0.745790 11.999540
vertex -0.535005 -0.845727 11.999540
endloop
endfacet
facet normal 0.000000 0.000000 1.000000
outer loop
vertex -0.956745 -0.330339 11.999540
vertex -0.885833 -0.484392 11.999540
vertex -0.790108 -0.624191 11.999540
endloop
endfacet
facet normal 0.000000 0.000000 1.000000
outer loop
vertex -1.016029 0.002228 11.999540
vertex -1.000526 -0.166587 11.999540
vertex -0.956745 -0.330339 11.999540
endloop
endfacet
facet normal 0.000000 0.000000 1.000000
outer loop
vertex -0.961119 0.335540 11.999540
vertex -1.002744 0.171173 11.999540
vertex -1.016029 0.002228 11.999540
endloop
endfacet
facet normal 0.000000 0.000000 1.000000
outer loop
vertex -0.798350 0.631559 11.999540
vertex -0.892231 0.490454 11.999540
vertex -0.961119 0.335540 11.999540
endloop
endfacet
facet normal -0.000049 0.000000 1.000000
outer loop
vertex -0.546180 0.856362 11.999540
vertex -0.681796 0.754639 11.999540
vertex -0.798350 0.631559 11.999540
endloop
endfacet
facet normal 0.000025 0.000000 1.000000
outer loop
vertex -0.233468 0.984387 11.999540
vertex -0.395281 0.933669 11.999540
vertex -0.546180 0.856362 11.999540
endloop
endfacet
facet normal 0.000000 0.000000 1.000000
outer loop
vertex 0.103777 1.000938 11.999540
vertex -0.065490 1.007024 11.999540
vertex -0.233468 0.984387 11.999540
endloop
endfacet
facet normal 0.000024 0.000000 1.000000
outer loop
vertex 0.427597 0.904118 11.999540
vertex 0.269801 0.966340 11.999540
vertex 0.103777 1.000938 11.999540
endloop
endfacet
facet normal -0.000049 0.000000 1.000000
outer loop
vertex 0.700370 0.705084 11.999540
vertex 0.572394 0.816186 11.999540
vertex 0.427597 0.904118 11.999540
endloop
endfacet
facet normal -0.000287 0.000000 1.000000
outer loop
vertex 0.807742 0.573844 11.999540
vertex 0.705313 0.700736 11.999540
vertex 0.700370 0.705084 11.999540
endloop
endfacet
facet normal 0.000047 0.000000 1.000000
outer loop
vertex 0.951160 0.260739 11.999540
vertex 0.891429 0.426398 11.999540
vertex 0.807742 0.573844 11.999540
endloop
endfacet
facet normal 0.000014 0.000000 1.000000
outer loop
vertex 0.896836 -0.396924 11.999540
vertex 0.983361 0.005495 11.999540
vertex 0.951160 0.260739 11.999540
endloop
endfacet
facet normal 0.000000 0.000000 1.000000
outer loop
vertex 0.439312 -0.880691 11.999540
vertex 0.709450 -0.678035 11.999540
vertex 0.896836 -0.396924 11.999540
endloop
endfacet
facet normal -0.000006 0.000000 1.000000
outer loop
vertex -0.220639 -0.969635 11.999540
vertex 0.116791 -0.981694 11.999540
vertex 0.439312 -0.880691 11.999540
endloop
endfacet
facet normal 0.000013 0.000000 1.000000
outer loop
vertex -0.790108 -0.624191 11.999540
vertex -0.535005 -0.845727 11.999540
vertex -0.220639 -0.969635 11.999540
endloop
endfacet
facet normal 0.000000 0.000000 1.000000
outer loop
vertex -1.016029 0.002228 11.999540
vertex -0.956745 -0.330339 11.999540
vertex -0.790108 -0.624191 11.999540
endloop
endfacet
facet normal 0.000013 0.000000 1.000000
outer loop
vertex -0.798350 0.631559 11.999540
vertex -0.961119 0.335540 11.999540
vertex -1.016029 0.002228 11.999540
endloop
endfacet
facet normal 0.000000 0.000000 1.000000
outer loop
vertex -0.233468 0.984387 11.999540
vertex -0.546180 0.856362 11.999540
vertex -0.798350 0.631559 11.999540
endloop
endfacet
facet normal -0.000002 0.000000 1.000000
outer loop
vertex 0.427597 0.904118 11.999540
vertex 0.103777 1.000938 11.999540
vertex -0.233468 0.984387 11.999540
endloop
endfacet
facet normal 0.000000 0.000000 1.000000
outer loop
vertex 0.807742 0.573844 11.999540
vertex 0.700370 0.705084 11.999540
vertex 0.427597 0.904118 11.999540
endloop
endfacet
facet normal 0.000000 0.000000 1.000000
outer loop
vertex 0.896836 -0.396924 11.999540
vertex 0.951160 0.260739 11.999540
vertex 0.807742 0.573844 11.999540
endloop
endfacet
facet normal 0.000000 0.000000 1.000000
outer loop
vertex -0.220639 -0.969635 11.999540
vertex 0.439312 -0.880691 11.999540
vertex 0.896836 -0.396924 11.999540
endloop
endfacet
facet normal 0.000000 0.000000 1.000000
outer loop
vertex -1.016029 0.002228 11.999540
vertex -0.790108 -0.624191 11.999540
vertex -0.220639 -0.969635 11.999540
endloop
endfacet
facet normal 0.000000 0.000000 1.000000
outer loop
vertex -0.233468 0.984387 11.999540
vertex -0.798350 0.631559 11.999540
vertex -1.016029 0.002228 11.999540
endloop
endfacet
facet normal -0.000001 0.000000 1.000000
outer loop
vertex 0.807742 0.573844 11.999540
vertex 0.427597 0.904118 11.999540
vertex -0.233468 0.984387 11.999540
endloop
endfacet
facet normal 0.000000 0.000000 1.000000
outer loop
vertex -0.220639 -0.969635 11.999540
vertex 0.896836 -0.396924 11.999540
vertex 0.807742 0.573844 11.999540
endloop
endfacet
facet normal -0.000002 0.000000 1.000000
outer loop
vertex -0.233468 0.984387 11.999540
vertex -1.016029 0.002228 11.999540
vertex -0.220639 -0.969635 11.999540
endloop
endfacet
facet normal 0.000002 0.000000 1.000000
outer loop
vertex -0.233468 0.984387 11.999540
vertex -0.220639 -0.969635 11.999540
vertex 0.807742 0.573844 11.999540
endloop
endfacet
endsolid inlet
